<svg width="700" height="117" viewBox="0 0 700 117" fill="none" xmlns="http://www.w3.org/2000/svg">
<path d="M77.3066 115.867C73.1108 115.981 68.9554 115.023 65.2337 113.082C61.512 111.141 58.3472 108.283 56.0391 104.777C48.7741 111.571 39.2976 115.51 29.3569 115.867C11.5471 115.867 1.89189 103.309 5.15377 85.3033C7.63281 71.7665 18.7232 58.1971 21.822 47.3024C15.8201 43.6491 6.91519 41.1048 2.73998 48.5746L0 46.911C2.18546 38.7237 7.46971 33.2763 15.1025 33.2763C22.7353 33.2763 28.3784 37.8103 35.6524 33.6351H41.4585C38.3597 49.9445 30.5312 62.9921 26.356 85.8252C23.8117 99.8187 28.5415 106.179 36.5331 106.179C42.4594 105.433 47.8984 102.516 51.7987 97.9921C48.6086 90.0171 47.0021 81.4973 47.069 72.9082C47.069 53.0759 56.1696 32.1673 71.4352 32.1673C79.2637 32.1673 85.0699 37.6146 85.0699 50.5317C85.0699 63.4487 77.2414 83.4441 67.26 96.0023C67.7992 98.9925 69.365 101.701 71.6874 103.66C74.0098 105.619 76.9431 106.706 79.9814 106.734C94.5294 106.734 104.706 84.9119 104.706 64.7209C104.706 44.5298 95.9646 45.4431 96.7148 38.6258C96.8484 36.9117 97.6532 35.3197 98.9542 34.1958C100.255 33.0719 101.947 32.507 103.663 32.6239C108.197 32.6239 114.166 38.3649 114.166 61.6547C114.166 91.3378 98.3784 115.867 77.3066 115.867ZM74.0121 42.4096C69.4781 42.4096 65.1072 59.1431 64.5527 76.431C64.3409 80.1275 64.4063 83.8347 64.7484 87.5214C71.5993 76.1841 75.7718 63.4324 76.9478 50.2381C76.9152 44.3667 75.8388 42.4096 74.0121 42.4096ZM144.045 115.117C142.142 115.314 140.22 115.09 138.414 114.462C136.607 113.834 134.961 112.816 133.592 111.481C132.223 110.146 131.163 108.526 130.49 106.736C129.816 104.946 129.544 103.03 129.692 101.123C129.692 93.1319 140.065 53.3043 140.065 46.7479C140.065 43.6491 139.348 41.8225 136.608 41.8225C133.543 42.3255 130.695 43.7211 128.42 45.8346V40.1915C133.143 35.8285 139.282 33.3153 145.708 33.1132C147.622 32.9413 149.55 33.1889 151.359 33.8389C153.167 34.4888 154.812 35.5254 156.178 36.8763C157.545 38.2273 158.6 39.86 159.27 41.6607C159.941 43.4614 160.211 45.3868 160.061 47.3024C160.061 55.294 149.688 94.9585 149.688 101.482C149.688 104.581 150.405 106.408 153.145 106.408C156.168 105.896 158.997 104.577 161.333 102.591V108.039C156.628 112.43 150.478 114.947 144.045 115.117ZM156.766 0.00511671C158.188 -0.0408728 159.602 0.223612 160.911 0.780148C162.22 1.33669 163.392 2.17189 164.345 3.2276C165.299 4.28331 166.01 5.53413 166.431 6.89296C166.851 8.25178 166.97 9.68593 166.78 11.0955C166.434 14.102 165.011 16.8816 162.775 18.9203C160.538 20.9591 157.639 22.1191 154.613 22.1859C153.192 22.2319 151.777 21.9674 150.468 21.4109C149.159 20.8544 147.987 20.0191 147.034 18.9634C146.081 17.9077 145.369 16.6569 144.949 15.2981C144.528 13.9393 144.409 12.5051 144.599 11.0955C144.945 8.08901 146.368 5.30944 148.605 3.27071C150.841 1.23198 153.74 0.0719616 156.766 0.00511671ZM197.148 98.0247C196.235 102.95 196.789 106.375 200.247 106.375C203.281 105.899 206.119 104.576 208.434 102.559L208.76 108.039C204.037 112.402 197.899 114.915 191.473 115.117C180.186 115.117 175.815 106.93 177.479 96.7526L188.569 33.6351C192.255 12.5634 190.983 9.79076 179.697 9.79076L180.415 4.70223L214.436 0.20083L197.148 98.0247ZM292.819 97.8616C291.906 102.787 292.265 106.408 295.918 106.408C298.957 105.829 301.785 104.443 304.105 102.396V108.039C299.414 112.451 293.256 114.972 286.817 115.117C283.563 115.355 280.338 114.365 277.778 112.342C275.218 110.319 273.508 107.41 272.987 104.19C270.26 107.801 266.745 110.743 262.709 112.789C258.672 114.835 254.222 115.933 249.697 115.998C228.071 115.998 218.97 96.9157 223.145 73.9846C227.321 51.0536 246.794 32.3304 268.812 32.3304C274.024 32.2221 279.177 33.4459 283.784 35.8858L284.338 32.9827C288.644 10.541 286.654 9.79076 275.368 9.79076L275.923 4.70223L310.107 0.20083L292.819 97.8616ZM269.366 40.5503C256.808 40.5503 248.458 55.4571 245.163 73.8215C241.706 93.0992 243.891 106.44 255.699 106.44C263.691 106.44 272.791 96.6547 275.531 81.7153L282.251 43.8774C278.376 41.5265 273.895 40.3692 269.366 40.5503ZM350.294 116.03C325.014 116.03 318.099 97.829 321.198 80.3779L329.45 33.6351C333.267 12.5307 331.994 9.62767 320.708 9.62767L321.426 4.53913L355.545 0.20083L348.63 39.8327C353.939 35.2165 360.68 32.5776 367.712 32.363C389.73 32.363 400.07 51.0862 396.09 74.0172C392.111 96.9483 371.855 116.03 350.294 116.03ZM362.102 41.007C358.426 41.083 354.869 42.3198 351.94 44.5404C349.01 46.761 346.858 49.8515 345.792 53.3695L340.704 82.7265C337.605 100.178 343.802 107.288 351.631 107.288C363.08 107.288 370.191 94.5671 374.007 73.6584C377.4 54.9352 374.301 41.1048 362.069 41.1048L362.102 41.007ZM430.568 84.5857C430.568 98.5792 437.288 106.049 450.14 106.049C456.664 106.049 466.156 101.515 472.158 95.513L474.702 101.319C470.391 105.888 465.209 109.547 459.461 112.079C453.713 114.612 447.515 115.966 441.235 116.063C422.153 116.063 409.236 101.874 409.236 82.596C409.236 54.0545 432.884 32.3956 455.62 32.3956C469.45 32.3956 477.246 40.0284 477.246 48.9334C477.083 62.7637 463.97 78.2903 430.568 84.5857ZM454.021 40.746C443.649 40.746 433.667 55.8485 430.927 77.4748C451.836 72.3863 460.741 58.1971 460.937 49.0965C460.904 44.0079 458.523 40.746 453.989 40.746H454.021ZM551.454 115.117C548.2 115.355 544.975 114.365 542.414 112.342C539.854 110.319 538.145 107.41 537.624 104.19C534.999 107.799 531.568 110.746 527.604 112.796C523.64 114.846 519.253 115.942 514.79 115.998C493.523 115.998 484.422 96.9157 488.695 73.9846C492.968 51.0536 512.116 32.363 534.199 32.363C538.883 32.338 543.522 33.2704 547.833 35.103H568.579L557.456 97.8616C556.542 102.787 556.901 106.408 560.555 106.408C563.594 105.829 566.422 104.443 568.742 102.396V108.039C564.05 112.451 557.893 114.972 551.454 115.117ZM534.72 40.5503C522.521 40.5503 513.975 55.4571 510.713 73.8215C507.255 93.0992 509.637 106.44 520.499 106.44C528.849 106.44 537.787 96.2633 540.331 81.7153L547.05 43.8774C543.393 41.5262 539.097 40.364 534.753 40.5503H534.72ZM632.218 53.8262C627.293 53.8262 626.021 50.0098 624.585 45.9977C624.102 43.9756 622.929 42.1854 621.268 40.9351C619.606 39.6849 617.561 39.0528 615.485 39.1477C612.787 39.006 610.134 39.8776 608.046 41.5915C605.957 43.3054 604.585 45.7379 604.198 48.4115C603.644 53.3369 607.297 57.5121 614.212 63.514L623.476 71.1468C626.929 73.7628 629.602 77.2722 631.206 81.2963C632.809 85.3204 633.284 89.7061 632.577 93.98C630.228 107.615 618.942 115.998 603.84 115.998C585.638 115.998 574.026 105.266 575.298 97.9921C575.592 96.0783 576.558 94.3317 578.022 93.0647C579.486 91.7978 581.354 91.0931 583.29 91.0769C588.02 91.0769 589.814 94.6976 591.281 99.4273C592.222 102.143 594.034 104.473 596.435 106.053C598.835 107.634 601.691 108.378 604.557 108.169C607.391 108.302 610.172 107.373 612.356 105.563C614.541 103.753 615.97 101.193 616.365 98.3835C617.083 91.8597 613.103 87.8476 605.634 81.0955L596.533 73.1039C593.325 70.6491 590.825 67.3872 589.29 63.6509C587.754 59.9146 587.237 55.8378 587.791 51.8364C589.422 43.0946 597.577 32.2651 616.333 32.2651C630.881 32.2651 639.981 40.4525 639.166 47.0088C639.077 48.8104 638.312 50.5123 637.025 51.7756C635.737 53.0389 634.021 53.771 632.218 53.8262ZM698.793 42.4096H681.146L672.6 90.7507C670.773 100.765 672.241 105.299 677.689 105.299C680.592 105.299 685.158 103.668 691.682 96.9483L692.041 104.027C689.089 107.527 685.415 110.347 681.272 112.295C677.128 114.243 672.612 115.273 668.034 115.313C655.671 115.313 649.473 106.571 652.409 90.3919L660.955 42.4096H647.157L648.234 34.9399H662.162L665.815 13.3136H686.17L682.353 34.9399H700L698.793 42.4096Z" fill="#8945EE"/>
</svg>
